<?xml version="1.0" encoding="UTF-8" standalone="no"?>
<svg width="90px" height="65px" viewBox="0 0 90 65" version="1.1" xmlns="http://www.w3.org/2000/svg" xmlns:xlink="http://www.w3.org/1999/xlink" xmlns:sketch="http://www.bohemiancoding.com/sketch/ns">
    <!-- Generator: Sketch 3.1.1 (8761) - http://www.bohemiancoding.com/sketch -->
    <title>house2@2x</title>
    <desc>Created with Sketch.</desc>
    <defs></defs>
    <g id="Page-1" stroke="none" stroke-width="1" fill="none" fill-rule="evenodd" sketch:type="MSPage">
        <g id="house2" sketch:type="MSLayerGroup" fill="#000000">
            <path d="M36.077,41.791 L24.595,41.791 L24.595,27.196 L17.907,27.196 L17.907,41.792 L6.424,41.792 L6.424,21.716 L0,21.716 L21.251,0.465 L42.502,21.716 L36.078,21.716 L36.078,41.791 L36.077,41.791 Z M25.569,40.818 L35.104,40.818 L35.104,20.742 L40.151,20.742 L21.251,1.842 L2.351,20.742 L7.398,20.742 L7.398,40.818 L16.933,40.818 L16.933,26.222 L25.569,26.222 L25.569,40.818 L25.569,40.818 Z" id="house-left" sketch:type="MSShapeGroup"></path>
            <path d="M83.576,41.791 L72.093,41.791 L72.093,27.196 L65.405,27.196 L65.405,41.792 L53.923,41.792 L53.923,21.716 L47.499,21.716 L68.75,0.465 L90,21.716 L83.576,21.716 L83.576,41.791 L83.576,41.791 Z M73.067,40.818 L82.602,40.818 L82.602,20.742 L87.649,20.742 L68.749,1.842 L49.849,20.742 L54.896,20.742 L54.896,40.818 L64.431,40.818 L64.431,26.222 L73.067,26.222 L73.067,40.818 L73.067,40.818 Z" id="house-right" sketch:type="MSShapeGroup"></path>
            <path d="M45,65 C31.937,65 21.065,54.375 20.764,41.316 L21.738,41.293 C22.026,53.828 32.462,64.026 45,64.026 C57.538,64.026 67.974,53.828 68.262,41.293 L69.236,41.316 C68.935,54.375 58.063,65 45,65 L45,65 Z" id="line-curve" sketch:type="MSShapeGroup"></path>
        </g>
    </g>
</svg>