<svg xmlns="http://www.w3.org/2000/svg" xmlns:xlink="http://www.w3.org/1999/xlink" version="1.1" x="0px" y="0px" viewBox="0 0 100 125" enable-background="new 0 0 100 100" xml:space="preserve"><path fill="#000000" d="M44.581,88.339H31.886V72.061h-7.571v16.278H11.621V65.948H4.536l23.565-23.565l23.565,23.565h-7.085V88.339  z M32.86,87.365h10.747V64.974h5.708L28.101,43.76L6.887,64.974h5.708v22.391h10.746V71.087h9.519V87.365z"/><path fill="#000000" d="M87.45,66.587H74.756V50.309h-7.571v16.278H54.491v-22.39h-7.086L70.97,20.632l23.566,23.566H87.45V66.587z   M75.73,65.614h10.746v-22.39h5.709L70.97,22.009L49.756,43.224h5.709v22.39h10.746V49.335h9.519V65.614z"/><text x="0" y="115" fill="#000000" font-size="5px" font-weight="bold" font-family="'Helvetica Neue', Helvetica, Arial-Unicode, Arial, Sans-serif">Created by Anton Noskov</text><text x="0" y="120" fill="#000000" font-size="5px" font-weight="bold" font-family="'Helvetica Neue', Helvetica, Arial-Unicode, Arial, Sans-serif">from the Noun Project</text></svg>