<?xml version="1.0" encoding="UTF-8" standalone="no"?>
<svg width="90px" height="47px" viewBox="0 0 90 47" version="1.1" xmlns="http://www.w3.org/2000/svg" xmlns:xlink="http://www.w3.org/1999/xlink" xmlns:sketch="http://www.bohemiancoding.com/sketch/ns">
    <!-- Generator: Sketch 3.1.1 (8761) - http://www.bohemiancoding.com/sketch -->
    <title>house1@2x</title>
    <desc>Created with Sketch.</desc>
    <defs></defs>
    <g id="Page-1" stroke="none" stroke-width="1" fill="none" fill-rule="evenodd" sketch:type="MSPage">
        <g id="house1" sketch:type="MSLayerGroup" fill="#000000">
            <path d="M36.077,41.543 L24.595,41.543 L24.595,26.947 L17.907,26.947 L17.907,41.543 L6.424,41.543 L6.424,21.467 L0,21.467 L21.251,0.216 L42.502,21.467 L36.078,21.467 L36.078,41.543 L36.077,41.543 Z M25.569,40.569 L35.104,40.569 L35.104,20.493 L40.151,20.493 L21.251,1.593 L2.351,20.493 L7.398,20.493 L7.398,40.569 L16.933,40.569 L16.933,25.973 L25.569,25.973 L25.569,40.569 L25.569,40.569 Z" id="house-left" sketch:type="MSShapeGroup"></path>
            <path d="M83.576,41.543 L72.093,41.543 L72.093,26.947 L65.405,26.947 L65.405,41.543 L53.923,41.543 L53.923,21.467 L47.499,21.467 L68.75,0.216 L90,21.467 L83.576,21.467 L83.576,41.543 L83.576,41.543 Z M73.067,40.569 L82.602,40.569 L82.602,20.493 L87.649,20.493 L68.749,1.593 L49.849,20.493 L54.896,20.493 L54.896,40.569 L64.431,40.569 L64.431,25.973 L73.067,25.973 L73.067,40.569 L73.067,40.569 Z" id="house-right" sketch:type="MSShapeGroup"></path>
            <path d="M69.236,46.208 L20.764,46.208 L20.764,35.069 L21.738,35.069 L21.738,45.234 L68.262,45.234 L68.262,35.069 L69.236,35.069 L69.236,46.208 Z" id="line" sketch:type="MSShapeGroup"></path>
        </g>
    </g>
</svg>